<svg viewBox="0 0 48 48" xmlns="http://www.w3.org/2000/svg"><defs><radialGradient id="prefix__a" cx="-290.6" cy="-7" r="2" gradientTransform="matrix(-.876 .17 -.4 -2.3 -245.5 57)" gradientUnits="userSpaceOnUse"><stop offset="0" stop-color="#fd6"/><stop offset="1" stop-color="#ea1"/></radialGradient><radialGradient id="prefix__d" cx="15" cy="58" r="15" fx="15" fy="52" gradientTransform="matrix(.9 0 0 -1.1 11 82)" gradientUnits="userSpaceOnUse"><stop offset="0" stop-color="#fd6"/><stop offset="1" stop-color="#ea1"/></radialGradient><radialGradient id="prefix__e" cx="23" cy="37" r="11" gradientTransform="matrix(1 0 0 -1 1 48)" gradientUnits="userSpaceOnUse"><stop offset="0" stop-color="#964"/><stop offset="1" stop-color="#531"/></radialGradient><radialGradient id="prefix__f" cx="23" cy="35" r="11" gradientTransform="matrix(.95 -.3 -.28 -.96 12 53)" gradientUnits="userSpaceOnUse"><stop offset="0" stop-color="#964"/><stop offset=".919" stop-color="#531"/></radialGradient><radialGradient id="prefix__g" cx="23" cy="34" r="11" gradientTransform="matrix(.95 -.3 -.28 -.96 11 53)" gradientUnits="userSpaceOnUse"><stop offset="0" stop-color="#853"/><stop offset=".919" stop-color="#531"/></radialGradient><radialGradient id="prefix__h" cx="23" cy="34" r="11" gradientTransform="matrix(.95 -.3 -.28 -.96 10 53)" gradientUnits="userSpaceOnUse"><stop offset="0" stop-color="#742"/><stop offset=".919" stop-color="#531"/></radialGradient><radialGradient id="prefix__l" cx="-16" cy="28.7" r="1.7" gradientTransform="matrix(1.37 0 0 1.32 45.9 -12.3)" gradientUnits="userSpaceOnUse"><stop offset=".3" stop-color="#c90"/><stop offset="1" stop-color="#c90" stop-opacity="0"/></radialGradient><radialGradient id="prefix__m" cx="24" cy="199" r="1.4" gradientTransform="matrix(1 0 0 .66 0 -106)" gradientUnits="userSpaceOnUse"><stop offset="0" stop-color="#ffc"/><stop offset="1" stop-color="#ffc" stop-opacity="0"/></radialGradient><linearGradient id="prefix__b" x1="16" y1="27" x2="20" y2="27" gradientTransform="matrix(1 0 0 -1 0 48)" gradientUnits="userSpaceOnUse"><stop offset="0" stop-color="#c96"/><stop offset="1" stop-color="#742"/></linearGradient><linearGradient id="prefix__k" gradientUnits="userSpaceOnUse" x1="24" y1="24" x2="24" y2="3" gradientTransform="matrix(1 0 0 -1 1.4 48)"><stop offset="0" stop-color="#ddd"/><stop offset="1" stop-color="gray"/></linearGradient><g id="prefix__i"><path d="M14.322 21.29c-.023.367.055.336.196.519 0 0 1.594 2.204 6.402.695.348-.124.598-.36.562-.644-.616-4.882-6.783-4.165-7.16-.57z" fill="#742"/><path d="M14.393 21.07c-.12.258-.082.464 0 .672.343.906 3.095 4.131 6.809.745.277-.239.321-.45.252-.748C21.385 21.44 20.423 19 17.902 19c-2.497 0-3.301 1.719-3.509 2.07z" fill="#fff"/></g><g id="prefix__j"><circle cx="17.993" cy="21.069" r="2.092" fill="url(#prefix__b)"/><circle cx="17.993" cy="21.069" r="1.053" fill="#1c1911"/><circle cx="17.484" cy="20.526" r=".494" fill="#fff"/></g><path d="M12.66 19.601c-.759-.243-2.592-.088-2.656 2.142-.06 2.109.464 3.07 1.159 3.976.78 1.016 2.183 1.008 2.067.201-.115-.807-.57-6.319-.57-6.319z" fill="url(#prefix__a)" id="prefix__c"/></defs><path d="M43 46s.054-9.133-6.089-10.749C33.774 34.426 24.018 32 24.001 32c-.017 0-9.774 2.426-12.91 3.251C4.947 36.867 5 46 5 46z" fill="#0f7211"/><use href="#prefix__c"/><use href="#prefix__c" x="-48" transform="scale(-1 1)"/><path d="M36.838 19.716c0 2.89-.193 6.659-1.343 8.971C33.256 33.191 27.296 36 24.015 36c-3.41 0-9.305-2.809-11.544-7.313-1.149-2.312-1.279-6.081-1.279-8.971 0-.635.017-1.234.051-1.803.196-3.271.943-5.526 2.101-7.612 2.299-4.141 6.22-6.012 10.671-6.012 4.426 0 8.329 1.841 10.633 5.945 1.383 2.461 2.19 5.196 2.19 9.482z" fill="url(#prefix__d)"/><path d="M11.774 20.328s.321-3.984.12-5.147c.905-.657 3.722-2.63 3.32-5.714 1.157.961 7.092 5.006 16.598 1.82 2.113 2.579 2.515 2.68 4.124 3.641.402 1.112.553 4.76.503 5.367-.05.607.704 1.062 1.056-.202.111-.398.505-3.747.505-6.093 0-5-1.547-12.643-13.884-12.747-11.976-.101-14.054 7.726-14.054 12.726 0 3 .725 6.215.725 6.215.138.757.824.79.987.134z" fill="url(#prefix__e)"/><path d="M14.071 7.255c.021 3.627-1.444 5.555-2.683 6.386-.151.101-.29.203-.411.289-.129.092-.192.244-.196.418-.028 1.131-.12 3.172-.059 4.418.002.364-.011.671-.01.902l.009.06c.039.291.065.467.065.467.138.757.822.79.985.134 0 0 .286-3.548.149-4.925a.405.405 0 01.165-.364c.95-.695 3.026-2.316 3.154-4.741.017-.324.362-.521.63-.341 2.024 1.362 7.501 4.056 15.652 1.417a.416.416 0 01.444.131c1.894 2.294 2.352 2.48 3.798 3.338a.412.412 0 01.19.232c.366 1.255.503 4.638.455 5.22-.05.607.703 1.062 1.055-.202.014-.051.035-.153.06-.295a18.586 18.586 0 01-.023-.961c.003-1.478-.243-4.386-.547-5.401a.405.405 0 00-.182-.225l-.055-.033c-1.438-.87-2.555-2.454-4.441-4.725a.417.417 0 00-.442-.131c-8.114 2.613-14.855.01-17.142-1.457-.287-.188-.623.043-.62.389z" fill="url(#prefix__f)"/><path d="M14.212 7.796c.092 3.381-1.533 5.328-2.794 6.109a1.256 1.256 0 00-.353.33.745.745 0 00-.118.43c.01 1.249-.065 3.426-.024 4.257-.028.363-.127.622-.208.76l.01.07c.037.276.062.441.062.441.138.757.822.79.985.134 0 0 .286-3.548.149-4.925a.405.405 0 01.165-.364c.95-.695 3.026-2.316 3.154-4.741.017-.324.362-.521.63-.341 2.024 1.362 7.501 4.056 15.652 1.417a.416.416 0 01.444.131c1.894 2.294 2.352 2.48 3.798 3.338a.412.412 0 01.19.232c.366 1.255.503 4.638.455 5.22-.05.607.703 1.062 1.055-.202.014-.051.035-.153.06-.295-.093.041-.181-.347-.171-.811.025-1.179-.232-4.252-.56-5.348a.403.403 0 00-.166-.215 1.026 1.026 0 00-.055-.035c-1.445-.866-2.403-1.984-4.296-4.263a.417.417 0 00-.442-.131c-8.114 2.613-14.714-.123-17.001-1.59-.288-.184-.631.047-.621.392z" fill="url(#prefix__g)"/><path d="M14.352 8.338c.154 3.134-1.622 5.101-2.906 5.833a.603.603 0 00-.294.371 1.685 1.685 0 00-.039.442c.052 1.367-.01 3.681.01 4.097-.059.363-.242.573-.406.619l.011.079c.035.26.058.416.058.416.138.757.822.79.985.134 0 0 .286-3.548.149-4.925a.405.405 0 01.165-.364c.95-.695 3.026-2.316 3.154-4.741.017-.324.362-.521.63-.341 2.024 1.362 7.501 4.056 15.652 1.417a.416.416 0 01.444.131c1.894 2.294 2.352 2.48 3.798 3.338a.412.412 0 01.19.232c.366 1.255.503 4.638.455 5.22-.05.607.703 1.062 1.055-.202.014-.051.035-.153.06-.295-.181.2-.339-.201-.318-.661.04-.881-.222-4.118-.574-5.294a.4.4 0 00-.151-.204.649.649 0 00-.055-.036c-1.452-.862-2.251-1.514-4.151-3.801a.417.417 0 00-.442-.131c-8.114 2.613-14.574-.256-16.861-1.723-.285-.188-.635.044-.619.389z" fill="url(#prefix__h)"/><path d="M37.061 19.286c.048-.582-.211-3.984-.587-5.241a.41.41 0 00-.19-.231c-1.459-.859-2.099-1.044-4.005-3.34a.417.417 0 00-.442-.131c-8.114 2.613-14.433-.389-16.72-1.856-.289-.186-.648.046-.623.391.211 2.888-1.71 4.874-3.017 5.556a.416.416 0 00-.235.412c.151 1.364.083 4.389.083 4.389-.09.362-.358.525-.604.477.04.299.067.479.067.479.138.757.822.79.985.134 0 0 .286-3.548.149-4.925a.405.405 0 01.165-.364c.95-.695 3.026-2.316 3.154-4.741.017-.324.362-.521.63-.341 2.024 1.362 7.501 4.056 15.652 1.417a.416.416 0 01.444.131c1.894 2.294 2.352 2.48 3.798 3.338a.412.412 0 01.19.232c.366 1.255.503 4.638.455 5.22-.05.607.703 1.062 1.055-.202.014-.051.035-.153.06-.295-.267.362-.502-.052-.464-.509z" fill="#531"/><path d="M36.411 20.295c.048-.582-.088-4.086-.454-5.225a.413.413 0 00-.187-.224c-1.451-.861-1.907-1.045-3.808-3.348a.402.402 0 00-.429-.126c-8.195 2.655-13.688-.078-15.69-1.433a.385.385 0 00-.6.315c-.104 2.459-2.214 4.098-3.166 4.794a.384.384 0 00-.154.359c.132 1.222-.151 4.922-.151 4.922-.054.216-.166.35-.294.415.227-.054.461-.261.58-.546.162-.699.225-3.61.285-4.69a.363.363 0 01.15-.281c.929-.678 2.769-2.131 3.145-4.539.02-.125.149-.198.258-.133 1.575.947 7.371 4.029 15.463 1.312a.402.402 0 01.434.126c1.888 2.29 2.224 2.308 3.666 3.159.084.05.154.131.186.224.362 1.081.328 4.115.416 4.772.057.426.443.982.817.736-.268.034-.496-.247-.467-.589z" fill="#421"/><use href="#prefix__i"/><use href="#prefix__j"/><use href="#prefix__i" x="-48" transform="scale(-1 1)"/><use href="#prefix__j" x="11.909"/><path d="M32.167 17.222a6.762 6.762 0 00-4.06.234.754.754 0 11-.419-1.443l.017-.003a7.875 7.875 0 014.712.517.37.37 0 01-.242.696zm-16.334-.694a7.883 7.883 0 014.712-.517l.013.003a.754.754 0 11-.415 1.443 6.762 6.762 0 00-4.06-.234l-.007.002a.371.371 0 01-.243-.697z" fill="#742"/><path d="M40.571 28H7.429c-.746 0-1.312.673-1.184 1.408L9.133 46h29.733l2.888-16.592A1.2 1.2 0 0040.571 28z" fill="#ddd"/><path d="M40.887 29H7.142a.804.804 0 00-.792.941L9.133 46h29.733l2.812-16.058a.802.802 0 00-.791-.942z" fill="url(#prefix__k)"/><path d="M24.04 26.328c-.788 0-1.429-.2-1.825-.417-.291-.16-.586-.086-.393.415.261.679.858 1.48 2.218 1.48 1.337 0 1.936-.773 2.204-1.445.206-.516-.091-.568-.344-.449a4.29 4.29 0 01-1.86.416z" fill="url(#prefix__l)"/><ellipse cx="24" cy="25.5" rx="1.5" ry="1" fill="url(#prefix__m)"/></svg>
