<svg viewBox="0 0 48 48" xmlns="http://www.w3.org/2000/svg"><path d="M24.115 1.254C12.14 1.153 10.063 8.979 10.063 13.979c0 2.685.555 5.414.677 5.984-.405.336-.71.893-.736 1.78-.06 2.108.463 3.07 1.158 3.976.152.197.329.355.512.476.186.924.442 1.778.797 2.492 1.022 2.058 2.81 3.755 4.773 4.999a708 708 0 00-6.152 1.566C4.948 36.868 5 46 5 46h38s.053-9.132-6.09-10.748c-1.306-.343-3.77-.966-6.19-1.574 1.96-1.243 3.754-2.938 4.774-4.99.354-.711.618-1.56.813-2.479.19-.123.374-.286.53-.49.696-.906 1.22-1.868 1.16-3.977-.022-.725-.231-1.228-.528-1.572.008-.026.017-.048.025-.076.111-.398.506-3.748.506-6.094 0-5-1.548-12.642-13.885-12.746z"/></svg>
